<svg width="12" height="4" viewBox="0 0 12 4" fill="none" xmlns="http://www.w3.org/2000/svg">
<path d="M2.1235 3.192C1.4195 3.192 0.8595 2.664 0.8595 2.008V1.928C0.8595 1.288 1.4195 0.76 2.1235 0.76C2.8115 0.76 3.4035 1.288 3.4035 1.928V2.008C3.4035 2.664 2.8115 3.192 2.1235 3.192ZM5.9985 3.192C5.2945 3.192 4.7345 2.664 4.7345 2.008V1.928C4.7345 1.288 5.2945 0.76 5.9985 0.76C6.6865 0.76 7.2785 1.288 7.2785 1.928V2.008C7.2785 2.664 6.6865 3.192 5.9985 3.192ZM9.8735 3.192C9.1695 3.192 8.6095 2.664 8.6095 2.008V1.928C8.6095 1.288 9.1695 0.76 9.8735 0.76C10.5615 0.76 11.1535 1.288 11.1535 1.928V2.008C11.1535 2.664 10.5615 3.192 9.8735 3.192Z" fill="#121417" fill-opacity="0.5"/>
</svg>
