<svg aria-hidden="true" style="position:absolute;width:0;height:0;overflow:hidden" xmlns="http://www.w3.org/2000/svg">
  <defs>
    <symbol id="icon-burger-menu" viewBox="0 0 47 32">
      <path stroke-linecap="round" stroke-width="2.909" d="M8.537 5.333H45.09M8.537 24.727H45.09M19.668 15.03h25.423"/>
    </symbol>
    <symbol id="icon-horizontal-01" viewBox="0 0 32 32">
      <path fill="none" stroke="#85aa9f" style="stroke:var(--color1, #85aa9f)" stroke-linejoin="round" stroke-linecap="round" stroke-width="2.4" d="M5.331 16h21.333m.001 0-5.333-5.333M26.665 16l-5.333 5.333"/>
    </symbol>
    <symbol id="icon-d-mpr-toggle" viewBox="0 0 32 32">
      <path d="m16 22.003-10-10 1.4-1.4 8.6 8.6 8.6-8.6 1.4 1.4-10 10z"/>
      <path d="M16 22.003 14.303 23.7 16 25.397l1.697-1.697L16 22.003zm-10-10-1.697-1.697-1.697 1.697L4.303 13.7 6 12.003zm1.4-1.4 1.697-1.697L7.4 7.209 5.703 8.906 7.4 10.603zm8.6 8.6L14.303 20.9 16 22.597l1.697-1.697L16 19.203zm8.6-8.6 1.697-1.697L24.6 7.209l-1.697 1.697 1.697 1.697zm1.4 1.4 1.697 1.697 1.697-1.697-1.697-1.697L26 12.003zm-8.303 8.303-10-10L4.303 13.7l10 10 3.394-3.394zm-10-6.606 1.4-1.4-3.394-3.394-1.4 1.4L7.697 13.7zm-1.994-1.4 8.6 8.6 3.394-3.394-8.6-8.6L5.703 12.3zm11.994 8.6 8.6-8.6-3.394-3.394-8.6 8.6 3.394 3.394zm5.206-8.6 1.4 1.4 3.394-3.394-1.4-1.4-3.394 3.394zm1.4-1.994-10 10 3.394 3.394 10-10-3.394-3.394z"/>
    </symbol>
    <symbol id="icon-edit-01" viewBox="0 0 32 32">
      <path stroke-linejoin="round" stroke-linecap="round" stroke-width="2.88" d="M3.835 24.154c.061-.551.092-.827.175-1.085a2.68 2.68 0 0 1 .311-.647c.149-.226.345-.422.737-.814L22.666 4a3.77 3.77 0 1 1 5.333 5.333L10.391 26.941c-.392.392-.588.588-.814.737a2.68 2.68 0 0 1-.647.311c-.258.084-.533.114-1.085.175l-4.513.501.501-4.512z"/>
    </symbol>
    <symbol id="icon-eye" viewBox="0 0 32 32">
      <path stroke-linejoin="round" stroke-linecap="round" stroke-width="3.2" d="M1.333 16S6.666 5.333 16 5.333 30.667 16 30.667 16 25.334 26.667 16 26.667C6.667 26.667 1.333 16 1.333 16z"/>
      <path stroke-linejoin="round" stroke-linecap="round" stroke-width="3.2" d="M16 20a4 4 0 1 0 0-8 4 4 0 0 0 0 8z"/>
    </symbol>
    <symbol id="icon-eye-off" viewBox="0 0 32 32">
      <path stroke-linejoin="round" stroke-linecap="round" stroke-width="3.2" d="M23.92 23.92A13.429 13.429 0 0 1 16 26.667C6.667 26.667 1.333 16 1.333 16A24.605 24.605 0 0 1 8.08 8.08m5.12-2.427a12.161 12.161 0 0 1 2.8-.32C25.333 5.333 30.667 16 30.667 16a24.646 24.646 0 0 1-2.88 4.253m-8.96-1.426a4.01 4.01 0 0 1-2.855 1.273 3.996 3.996 0 0 1-3.779-2.501 3.995 3.995 0 0 1 .056-3.127c.219-.491.534-.932.927-1.298M1.333 1.333l29.333 29.333"/>
    </symbol>
    <symbol id="icon-logo" viewBox="0 0 32 32">
      <path fill="#85aa9f" style="fill:var(--color1, #85aa9f)" d="M32 16c0 8.837-7.163 16-16 16S0 24.837 0 16 7.163 0 16 0s16 7.163 16 16z"/>
      <path fill="#fcfcfc" style="fill:var(--color2, #fcfcfc)" d="M16.354 15.2c4.755-3.586 4.965-5.76 0-9.6-5.06 3.922-4.408 6.001 0 9.6zM15.2 16.446c-3.586-4.755-5.76-4.965-9.6 0 3.922 5.06 6.001 4.408 9.6 0zm12 0c-3.586-4.755-5.76-4.965-9.6 0 3.922 5.06 6.001 4.408 9.6 0zM16.354 27.2c4.755-3.586 4.965-5.76 0-9.6-5.06 3.922-4.408 6.001 0 9.6z"/>
    </symbol>
    <symbol id="icon-plus" viewBox="0 0 32 32">
      <path fill="none" stroke="#85aa9f" style="stroke:var(--color1, #85aa9f)" stroke-linejoin="round" stroke-linecap="round" stroke-width="2.4" d="M16 6.667v18.667M6.667 16h18.667"/>
    </symbol>
    <symbol id="icon-search" viewBox="0 0 32 32">
      <path stroke-linejoin="round" stroke-linecap="round" stroke-width="2.4" d="M14.667 25.333c5.891 0 10.667-4.776 10.667-10.667S20.558 3.999 14.667 3.999 4 8.775 4 14.666s4.776 10.667 10.667 10.667zM28 28l-5.8-5.8"/>
    </symbol>
    <symbol id="icon-switch-horizontal-01" viewBox="0 0 32 32">
      <path fill="none" stroke="#85aa9f" style="stroke:var(--color1, #85aa9f)" stroke-linejoin="round" stroke-linecap="round" stroke-width="2" d="M26.667 22.667H5.334m-.001 0 5.333-5.333m-5.333 5.333L10.666 28M5.333 9.333h21.333m.001 0L21.334 4m5.333 5.333-5.333 5.333"/>
    </symbol>
    <symbol id="icon-trash-03" viewBox="0 0 32 32">
      <path stroke-linejoin="round" stroke-linecap="round" stroke-width="2.88" d="M12 4h8m-6.667 10v6.667M18.667 14v6.667M4 8h24m-2.667 0-.935 14.026c-.14 2.104-.21 3.156-.665 3.954a4.007 4.007 0 0 1-1.731 1.62c-.826.4-1.881.4-3.99.4h-4.025c-2.109 0-3.163 0-3.99-.4a3.996 3.996 0 0 1-1.731-1.62c-.455-.798-.525-1.85-.665-3.954L6.666 8"/>
    </symbol>
    <symbol id="icon-ukr" viewBox="0 0 32 32">
      <path fill="#ffda44" style="fill:var(--color3, #ffda44)" d="M16 32c8.837 0 16-7.163 16-16S24.837 0 16 0 0 7.163 0 16s7.163 16 16 16z"/>
      <path fill="#338af3" style="fill:var(--color4, #338af3)" d="M0 16C0 7.164 7.163 0 16 0s16 7.163 16 16z"/>
    </symbol>
    <symbol id="icon-uk" viewBox="0 0 32 32">
      <path fill="#f0f0f0" style="fill:var(--color5, #f0f0f0)" d="M16 32c8.837 0 16-7.163 16-16S24.837 0 16 0 0 7.163 0 16s7.163 16 16 16z"/>
      <path fill="#0052b4" style="fill:var(--color6, #0052b4)" d="M3.308 6.259a15.942 15.942 0 0 0-2.756 5.567h8.324L3.309 6.259zM31.449 11.826a15.959 15.959 0 0 0-2.756-5.567l-5.567 5.567h8.323zM.551 20.174a15.959 15.959 0 0 0 2.756 5.567l5.567-5.567H.551zM25.741 3.308A15.942 15.942 0 0 0 20.174.552v8.324l5.567-5.567zM6.259 28.692a15.942 15.942 0 0 0 5.567 2.756v-8.323l-5.567 5.567zM11.826.551a15.959 15.959 0 0 0-5.567 2.756l5.567 5.567V.551zM20.174 31.449a15.959 15.959 0 0 0 5.567-2.756l-5.567-5.567v8.323zM23.125 20.174l5.567 5.567a15.942 15.942 0 0 0 2.756-5.567h-8.323z"/>
      <path fill="#d80027" style="fill:var(--color7, #d80027)" d="M31.865 13.913H18.087V.135a16.15 16.15 0 0 0-4.174 0v13.778H.135a16.15 16.15 0 0 0 0 4.174h13.778v13.778a16.15 16.15 0 0 0 4.174 0V18.087h13.778a16.15 16.15 0 0 0 0-4.174z"/>
      <path fill="#d80027" style="fill:var(--color7, #d80027)" d="m20.174 20.174 7.14 7.14c.328-.328.642-.672.941-1.027l-6.113-6.113h-1.968zM11.826 20.174l-7.14 7.14c.328.328.671.642 1.027.941l6.113-6.113v-1.967zM11.826 11.826l-7.14-7.14c-.328.328-.642.671-.941 1.027l6.113 6.113h1.968zM20.174 11.826l7.14-7.14a15.753 15.753 0 0 0-1.027-.94l-6.113 6.113v1.968z"/>
    </symbol>
    <symbol id="icon-user" viewBox="0 0 32 32">
      <path fill="#fcfcfc" style="fill:var(--color2, #fcfcfc)" opacity=".7" d="M16 5.333a5.332 5.332 0 1 1 0 10.665 5.332 5.332 0 0 1 0-10.665zm0 21.334s10.667 0 10.667-2.667c0-3.2-5.2-6.667-10.667-6.667S5.333 20.8 5.333 24C5.333 26.667 16 26.667 16 26.667z"/>
    </symbol>
    <symbol id="icon-vector" viewBox="0 0 39 32">
      <path d="m4.06.052 47.746 5.211-16.889 38.04L.029 16.222 4.061.052z"/>
    </symbol>
    <symbol id="icon-x" viewBox="0 0 32 32">
      <path fill="none" stroke="#fcfcfc" style="stroke:var(--color2, #fcfcfc)" stroke-linejoin="round" stroke-linecap="round" stroke-width="2.5" d="M24 8 8 24M8 8l16 16"/>
    </symbol>
    <symbol id="icon-paw-gray" viewBox="0 0 32 32">
      <path d="M4 0h24v24H4V0z"/>
    </symbol>
  </defs>
</svg>
